<?xml version="1.0" standalone="no"?>
<svg xmlns:xlink="http://www.w3.org/1999/xlink" id="wave" style="transform:rotate(0deg); transition: 0.3s" viewBox="0 0 1440 350" version="1.1" xmlns="http://www.w3.org/2000/svg"><defs><linearGradient id="sw-gradient-0" x1="0" x2="0" y1="1" y2="0"><stop stop-color="rgba(49, 60, 89, 1)" offset="0%"/><stop stop-color="rgba(22, 28, 45, 1)" offset="100%"/></linearGradient></defs><path style="transform:translate(0, 0px); opacity:1" fill="url(#sw-gradient-0)" d="M0,140L120,151.7C240,163,480,187,720,169.2C960,152,1200,93,1440,99.2C1680,105,1920,175,2160,169.2C2400,163,2640,82,2880,93.3C3120,105,3360,210,3600,256.7C3840,303,4080,292,4320,274.2C4560,257,4800,233,5040,227.5C5280,222,5520,233,5760,198.3C6000,163,6240,82,6480,40.8C6720,0,6960,0,7200,52.5C7440,105,7680,210,7920,239.2C8160,268,8400,222,8640,186.7C8880,152,9120,128,9360,134.2C9600,140,9840,175,10080,169.2C10320,163,10560,117,10800,99.2C11040,82,11280,93,11520,116.7C11760,140,12000,175,12240,180.8C12480,187,12720,163,12960,151.7C13200,140,13440,140,13680,145.8C13920,152,14160,163,14400,180.8C14640,198,14880,222,15120,215.8C15360,210,15600,175,15840,134.2C16080,93,16320,47,16560,46.7C16800,47,17040,93,17160,116.7L17280,140L17280,350L17160,350C17040,350,16800,350,16560,350C16320,350,16080,350,15840,350C15600,350,15360,350,15120,350C14880,350,14640,350,14400,350C14160,350,13920,350,13680,350C13440,350,13200,350,12960,350C12720,350,12480,350,12240,350C12000,350,11760,350,11520,350C11280,350,11040,350,10800,350C10560,350,10320,350,10080,350C9840,350,9600,350,9360,350C9120,350,8880,350,8640,350C8400,350,8160,350,7920,350C7680,350,7440,350,7200,350C6960,350,6720,350,6480,350C6240,350,6000,350,5760,350C5520,350,5280,350,5040,350C4800,350,4560,350,4320,350C4080,350,3840,350,3600,350C3360,350,3120,350,2880,350C2640,350,2400,350,2160,350C1920,350,1680,350,1440,350C1200,350,960,350,720,350C480,350,240,350,120,350L0,350Z"/></svg>